<svg id="Layer_1" data-name="Layer 1" xmlns="http://www.w3.org/2000/svg" xmlns:xlink="http://www.w3.org/1999/xlink" viewBox="0 0 149 39.29"><defs><style>.cls-1{fill:url(#linear-gradient);}.cls-2{fill:url(#linear-gradient-2);}.cls-3{fill:url(#linear-gradient-3);}.cls-4{fill:url(#linear-gradient-4);}.cls-5{fill:url(#linear-gradient-5);}.cls-6{fill:url(#linear-gradient-6);}.cls-7{fill:url(#linear-gradient-7);}.cls-8{fill:url(#linear-gradient-8);}.cls-9{fill:url(#linear-gradient-9);}.cls-10{fill:#090919;}.cls-11{fill:url(#linear-gradient-10);}</style><linearGradient id="linear-gradient" x1="67.24" y1="15.26" x2="72.26" y2="2.17" gradientUnits="userSpaceOnUse"><stop offset="0" stop-color="#f9f1cd"/><stop offset="0.02" stop-color="#eacdaf"/><stop offset="0.04" stop-color="#d49881"/><stop offset="0.07" stop-color="#c16959"/><stop offset="0.1" stop-color="#b14339"/><stop offset="0.12" stop-color="#a52620"/><stop offset="0.15" stop-color="#9c110e"/><stop offset="0.17" stop-color="#970404"/><stop offset="0.2" stop-color="#950000"/><stop offset="0.39" stop-color="#970000"/><stop offset="0.42" stop-color="#900"/><stop offset="0.73" stop-color="#cc0303"/><stop offset="0.99" stop-color="#f30505"/></linearGradient><linearGradient id="linear-gradient-2" x1="62.23" y1="15.38" x2="76.24" y2="15.38" gradientUnits="userSpaceOnUse"><stop offset="0" stop-color="#f9f1cd"/><stop offset="0.02" stop-color="#cdcac5"/><stop offset="0.04" stop-color="#9899bb"/><stop offset="0.06" stop-color="#696fb3"/><stop offset="0.08" stop-color="#434dac"/><stop offset="0.11" stop-color="#2632a7"/><stop offset="0.13" stop-color="#111fa3"/><stop offset="0.15" stop-color="#0414a1"/><stop offset="0.17" stop-color="#0010a0"/><stop offset="0.23" stop-color="#0b0db3"/><stop offset="0.43" stop-color="#3202f4"/><stop offset="0.58" stop-color="#3207f0"/><stop offset="0.75" stop-color="#3214e5"/><stop offset="0.93" stop-color="#332bd3"/><stop offset="0.99" stop-color="#33c"/></linearGradient><linearGradient id="linear-gradient-3" x1="61.04" y1="22.72" x2="75.05" y2="22.72" gradientUnits="userSpaceOnUse"><stop offset="0" stop-color="#f9f1cd"/><stop offset="0.01" stop-color="#d8d1b4"/><stop offset="0.03" stop-color="#ada794"/><stop offset="0.06" stop-color="#858176"/><stop offset="0.08" stop-color="#64615d"/><stop offset="0.11" stop-color="#474548"/><stop offset="0.14" stop-color="#302f36"/><stop offset="0.18" stop-color="#1f1e29"/><stop offset="0.22" stop-color="#121220"/><stop offset="0.28" stop-color="#0b0b1b"/><stop offset="0.41" stop-color="#090919"/><stop offset="0.48" stop-color="#090919"/><stop offset="0.91" stop-color="#090919"/><stop offset="0.92" stop-color="#090919"/><stop offset="0.99" stop-color="#090919"/></linearGradient><linearGradient id="linear-gradient-4" x1="69.75" y1="8.37" x2="83.76" y2="8.37" xlink:href="#linear-gradient-3"/><linearGradient id="linear-gradient-5" x1="74.24" y1="21.92" x2="79.27" y2="8.84" xlink:href="#linear-gradient"/><linearGradient id="linear-gradient-6" x1="69.75" y1="23.07" x2="83.76" y2="23.07" xlink:href="#linear-gradient-2"/><linearGradient id="linear-gradient-7" x1="78.12" y1="7.01" x2="92.13" y2="7.01" xlink:href="#linear-gradient-2"/><linearGradient id="linear-gradient-8" x1="77.1" y1="15.38" x2="91.11" y2="15.38" xlink:href="#linear-gradient-3"/><linearGradient id="linear-gradient-9" x1="80.91" y1="30.8" x2="85.93" y2="17.72" xlink:href="#linear-gradient"/><linearGradient id="linear-gradient-10" x1="1170.8" y1="966.86" x2="1166.48" y2="978.11" gradientTransform="translate(1221.86 1005.78) rotate(180)" gradientUnits="userSpaceOnUse"><stop offset="0" stop-color="#f9f1cd"/><stop offset="0.2" stop-color="#9c9c9c"/><stop offset="0.35" stop-color="#bebebe"/><stop offset="0.51" stop-color="#dadada"/><stop offset="0.68" stop-color="#efefef"/><stop offset="0.84" stop-color="#fbfbfb"/><stop offset="1" stop-color="#fff"/></linearGradient></defs><title>logoArtboard 2</title><circle class="cls-1" cx="69.75" cy="8.71" r="7.01"/><circle class="cls-2" cx="69.24" cy="15.38" r="7.01"/><circle class="cls-3" cx="68.04" cy="22.72" r="7.01"/><circle class="cls-4" cx="76.76" cy="8.37" r="7.01"/><circle class="cls-5" cx="76.76" cy="15.38" r="7.01"/><circle class="cls-6" cx="76.76" cy="23.07" r="7.01"/><circle class="cls-7" cx="85.13" cy="7.01" r="7.01"/><circle class="cls-8" cx="84.1" cy="15.38" r="7.01"/><circle class="cls-9" cx="83.42" cy="24.26" r="7.01"/><path class="cls-10" d="M100.17,38.56v0a.57.57,0,0,0-.89-.38,4.34,4.34,0,0,1-2.41.65,5.5,5.5,0,0,1-5.66-5.7A5.62,5.62,0,0,1,97,27.42,5.07,5.07,0,0,1,102,30.21a.56.56,0,0,1-.33.77l-1.31.45a.56.56,0,0,1-.68-.27A2.73,2.73,0,0,0,97,29.69a3.21,3.21,0,0,0-3.3,3.43,3.21,3.21,0,0,0,3.37,3.46,3,3,0,0,0,2.22-.85.56.56,0,0,0-.42-.95H97a.56.56,0,0,1-.56-.56v-.95a.56.56,0,0,1,.56-.56h4.57a.56.56,0,0,1,.56.56V38a.56.56,0,0,1-.56.56h-1.45Z"/><path class="cls-10" d="M96.86,39.29a6,6,0,0,1-6.14-6.17A6.09,6.09,0,0,1,97,27,5.53,5.53,0,0,1,102.38,30a1,1,0,0,1-.6,1.42l-1.32.45a1,1,0,0,1-1.26-.51A2.26,2.26,0,0,0,97,30.16a2.75,2.75,0,0,0-2.83,3,2.73,2.73,0,0,0,2.89,3,2.49,2.49,0,0,0,1.88-.7.07.07,0,0,0,0-.09.09.09,0,0,0-.09-.06H97a1,1,0,0,1-1-1v-.95a1,1,0,0,1,1-1h4.57a1,1,0,0,1,1,1V38a1,1,0,0,1-1,1H99.76l-.06-.42a.08.08,0,0,0,0-.07.11.11,0,0,0-.11,0A4.78,4.78,0,0,1,96.86,39.29ZM97,27.89a5.17,5.17,0,0,0-5.35,5.22,5,5,0,0,0,5.19,5.22A3.84,3.84,0,0,0,99,37.77a1.05,1.05,0,0,1,1-.09,1,1,0,0,1,.46.41h1.12a.09.09,0,0,0,.09-.09V33.27a.09.09,0,0,0-.09-.09H97a.09.09,0,0,0-.09.09v.95a.09.09,0,0,0,.09.09h1.84a1,1,0,0,1,1,.63,1,1,0,0,1-.2,1.11,3.4,3.4,0,0,1-2.56,1,3.68,3.68,0,0,1-3.84-3.93A3.68,3.68,0,0,1,97,29.22a3.18,3.18,0,0,1,3,1.74.09.09,0,0,0,.1,0l1.31-.45a.09.09,0,0,0,.06-.05.09.09,0,0,0,0-.07A4.57,4.57,0,0,0,97,27.89Z"/><path class="cls-10" d="M110.85,36.58h-3.52a.56.56,0,0,0-.53.37l-.55,1.49a.56.56,0,0,1-.53.37h-1.4a.56.56,0,0,1-.53-.77l3.68-9.54a1,1,0,0,1,.89-.61H110a1,1,0,0,1,.89.61L114.47,38a.56.56,0,0,1-.53.76h-1.49a.56.56,0,0,1-.53-.37l-.55-1.49A.56.56,0,0,0,110.85,36.58Z"/><path class="cls-10" d="M113.95,39.29h-1.49a1,1,0,0,1-1-.68l-.55-1.49a.09.09,0,0,0-.09-.06h-3.52a.09.09,0,0,0-.09.06l-.55,1.49a1,1,0,0,1-1,.68h-1.4a1,1,0,0,1-1-1.41L107,28.33a1.43,1.43,0,0,1,1.33-.91H110a1.43,1.43,0,0,1,1.33.92l3.63,9.54a1,1,0,0,1-1,1.4Zm-6.62-3.18h3.52a1,1,0,0,1,1,.68l.55,1.49a.09.09,0,0,0,.09.06h1.49a.09.09,0,0,0,.09-.12l-3.63-9.54a.48.48,0,0,0-.45-.31h-1.58a.48.48,0,0,0-.45.31l-3.68,9.54a.09.09,0,0,0,.09.13h1.4a.09.09,0,0,0,.09-.06l.55-1.49A1,1,0,0,1,107.32,36.11Z"/><path class="cls-10" d="M126.63,37.87V35.22a.7.7,0,0,0-1.35-.26l-1.36,3.41a.7.7,0,0,1-.65.44h-1.07a.7.7,0,0,1-.65-.44L120.14,35a.7.7,0,0,0-1.35.27v2.65a.94.94,0,0,1-.94.94h-.48a.94.94,0,0,1-.94-.94v-9a.94.94,0,0,1,.94-.94H119a.94.94,0,0,1,.87.58l2.18,5.23a.7.7,0,0,0,1.3,0l2.06-5.2a.94.94,0,0,1,.87-.59h1.85a.94.94,0,0,1,.94.94v9a.94.94,0,0,1-.94.94h-.61A.94.94,0,0,1,126.63,37.87Z"/><path class="cls-10" d="M128.17,39.29h-.61a1.41,1.41,0,0,1-1.41-1.41V35.22a.23.23,0,0,0-.44-.09l-1.36,3.41a1.17,1.17,0,0,1-1.09.74h-1.07a1.17,1.17,0,0,1-1.09-.73l-1.4-3.42a.23.23,0,0,0-.44.09v2.65a1.41,1.41,0,0,1-1.41,1.41h-.48A1.41,1.41,0,0,1,116,37.87v-9a1.41,1.41,0,0,1,1.41-1.41H119a1.41,1.41,0,0,1,1.3.87l2.18,5.23a.22.22,0,0,0,.21.14.23.23,0,0,0,.21-.14l2.06-5.2a1.4,1.4,0,0,1,1.31-.89h1.85a1.41,1.41,0,0,1,1.41,1.41v9A1.41,1.41,0,0,1,128.17,39.29ZM125.92,34l.23,0a1.16,1.16,0,0,1,1,1.15v2.65a.47.47,0,0,0,.47.47h.61a.47.47,0,0,0,.47-.47v-9a.47.47,0,0,0-.47-.47h-1.85a.46.46,0,0,0-.43.29l-2.06,5.2a1.17,1.17,0,0,1-1.08.74h0a1.17,1.17,0,0,1-1.08-.72l-2.18-5.23a.47.47,0,0,0-.43-.29h-1.68a.47.47,0,0,0-.47.47v9a.47.47,0,0,0,.47.47h.48a.47.47,0,0,0,.47-.47V35.23a1.17,1.17,0,0,1,2.26-.44L122,38.2a.23.23,0,0,0,.21.14h1.07a.23.23,0,0,0,.21-.14l1.36-3.41A1.16,1.16,0,0,1,125.92,34Z"/><path class="cls-10" d="M131.51,38.81V28.93a1,1,0,0,1,1-1h5a1,1,0,0,1,1,1v.22a1,1,0,0,1-1,1H135a1,1,0,0,0-1,1h0a1,1,0,0,0,1,1h2.08a1,1,0,0,1,1,1v.06a1,1,0,0,1-1,1H135A1.05,1.05,0,0,0,134,35.46h0A1.05,1.05,0,0,0,135,36.52h2.5a1,1,0,0,1,1,1v.22a1,1,0,0,1-1,1h-6Z"/><path class="cls-10" d="M137.55,39.29H131V28.93a1.51,1.51,0,0,1,1.51-1.51h5a1.51,1.51,0,0,1,1.51,1.51v.22a1.51,1.51,0,0,1-1.51,1.51H135a.57.57,0,0,0,0,1.13h2.08a1.51,1.51,0,0,1,1.51,1.51v.06a1.51,1.51,0,0,1-1.51,1.51H135A.58.58,0,1,0,135,36h2.5a1.51,1.51,0,0,1,1.51,1.51v.22A1.51,1.51,0,0,1,137.55,39.29ZM132,38.34h5.57a.57.57,0,0,0,.57-.57v-.22a.57.57,0,0,0-.57-.57H135a1.53,1.53,0,1,1,0-3.05h2.06a.57.57,0,0,0,.57-.57v-.06a.57.57,0,0,0-.57-.57H135a1.51,1.51,0,0,1,0-3h2.52a.57.57,0,0,0,.57-.57v-.22a.57.57,0,0,0-.57-.57h-5a.57.57,0,0,0-.57.57Z"/><path class="cls-10" d="M146.88,30.65a1,1,0,0,1-1-.42,1.9,1.9,0,0,0-1.62-.64c-.94,0-1.54.57-1.54,1.16s.35.91,1.1,1l1.51.28c2.14.38,3.21,1.73,3.21,3.27,0,1.7-1.45,3.46-4.12,3.46a4.45,4.45,0,0,1-4-2,1.05,1.05,0,0,1,.81-1.6h.13a1.09,1.09,0,0,1,1,.6c.31.57,1,.86,2.14.86,1,0,1.57-.47,1.57-1.13s-.47-.94-1.2-1.1l-1.51-.28a3.31,3.31,0,0,1-3.05-3.21,3.74,3.74,0,0,1,4-3.52A4,4,0,0,1,147.81,29a1,1,0,0,1-.66,1.61Z"/><path class="cls-10" d="M144.41,39.29A4.87,4.87,0,0,1,140,37.07a1.53,1.53,0,0,1-.05-1.5,1.5,1.5,0,0,1,1.24-.82h.13a1.55,1.55,0,0,1,1.47.85c.08.15.33.61,1.73.61.51,0,1.1-.17,1.1-.66s-.52-.57-.82-.64l-1.5-.28c-2.12-.39-3.44-1.8-3.44-3.67a4.21,4.21,0,0,1,4.47-4,4.43,4.43,0,0,1,3.91,1.78,1.49,1.49,0,0,1,.15,1.41,1.53,1.53,0,0,1-1.11.93l-.26.05a1.49,1.49,0,0,1-1.49-.6,1.49,1.49,0,0,0-1.24-.45c-.67,0-1.07.35-1.07.69,0,.14,0,.46.71.57l1.52.28c2.22.39,3.59,1.82,3.59,3.74S147.39,39.29,144.41,39.29Zm-3-3.6h-.17a.56.56,0,0,0-.47.31.59.59,0,0,0,0,.58,4,4,0,0,0,3.64,1.76c2.37,0,3.65-1.54,3.65-3s-1.05-2.5-2.82-2.81l-1.52-.28c-1.34-.22-1.49-1.12-1.49-1.5a1.83,1.83,0,0,1,2-1.64,2.33,2.33,0,0,1,2,.83.55.55,0,0,0,.54.24l.26-.05a.58.58,0,0,0,.43-.36.54.54,0,0,0-.05-.52,3.56,3.56,0,0,0-3.14-1.37,3.28,3.28,0,0,0-3.52,3.05c0,1.41,1,2.44,2.67,2.75l1.51.28c1,.22,1.58.8,1.58,1.57,0,1-.82,1.6-2,1.6s-2.16-.36-2.56-1.1A.63.63,0,0,0,141.38,35.68Z"/><path class="cls-10" d="M9.44,38.56v0a.57.57,0,0,0-.89-.38,4.34,4.34,0,0,1-2.41.65,5.5,5.5,0,0,1-5.66-5.7,5.62,5.62,0,0,1,5.82-5.7,6,6,0,0,1,4.59,2.65.56.56,0,0,1-.2.84l-.87.44a.84.84,0,0,1-1-.36,2.76,2.76,0,0,0-2.52-1.31A3.21,3.21,0,0,0,3,33.12a3.21,3.21,0,0,0,3.37,3.46,3,3,0,0,0,2.22-.85.56.56,0,0,0-.42-.95H6.32a.56.56,0,0,1-.56-.56v-.95a.56.56,0,0,1,.56-.56h4.57a.56.56,0,0,1,.56.56V38a.56.56,0,0,1-.56.56H9.44Z"/><path class="cls-10" d="M6.14,39.29A6,6,0,0,1,0,33.12,6.09,6.09,0,0,1,6.29,27a6.49,6.49,0,0,1,5,2.84,1,1,0,0,1-.37,1.54L10,31.8a1.32,1.32,0,0,1-1.56-.56,2.29,2.29,0,0,0-2.11-1.07,2.75,2.75,0,0,0-2.83,3,2.73,2.73,0,0,0,2.89,3,2.49,2.49,0,0,0,1.88-.7.07.07,0,0,0,0-.09.09.09,0,0,0-.09-.06H6.32a1,1,0,0,1-1-1v-.95a1,1,0,0,1,1-1h4.57a1,1,0,0,1,1,1V38a1,1,0,0,1-1,1H9L9,38.61a.08.08,0,0,0,0-.07.11.11,0,0,0-.11,0A4.78,4.78,0,0,1,6.14,39.29Zm.16-11.39A5.17,5.17,0,0,0,.94,33.12a5,5,0,0,0,5.19,5.22,3.84,3.84,0,0,0,2.15-.57,1.06,1.06,0,0,1,1-.09,1,1,0,0,1,.46.41h1.12A.09.09,0,0,0,11,38V33.27a.09.09,0,0,0-.09-.09H6.32a.09.09,0,0,0-.09.09v.95a.09.09,0,0,0,.09.09H8.16a1,1,0,0,1,1,.63,1,1,0,0,1-.2,1.11,3.4,3.4,0,0,1-2.56,1,3.68,3.68,0,0,1-3.84-3.93,3.68,3.68,0,0,1,3.78-3.9,3.2,3.2,0,0,1,2.93,1.54.37.37,0,0,0,.42.16l.84-.42a.09.09,0,0,0,0-.14A5.46,5.46,0,0,0,6.29,27.89Z"/><path class="cls-10" d="M17.19,34.72h0a.54.54,0,0,0-.54.54v3a.54.54,0,0,1-.54.54H14.7a.54.54,0,0,1-.54-.54V28.41a.54.54,0,0,1,.54-.54H18.6a3.37,3.37,0,0,1,3.62,3.43,3.13,3.13,0,0,1-1.72,2.88.54.54,0,0,0-.22.73L21.87,38a.54.54,0,0,1-.48.79H19.88a.54.54,0,0,1-.49-.3L17.68,35A.54.54,0,0,0,17.19,34.72Zm.94-2.11c1,0,1.57-.57,1.57-1.32S19.13,30,18.12,30h-.94a.54.54,0,0,0-.54.54v1.56a.54.54,0,0,0,.54.54Z"/><path class="cls-10" d="M21.39,39.29H19.88a1,1,0,0,1-.91-.57l-1.72-3.48a.07.07,0,0,0-.13,0v3a1,1,0,0,1-1,1H14.7a1,1,0,0,1-1-1V28.41a1,1,0,0,1,1-1H18.6a3.83,3.83,0,0,1,4.09,3.9,3.59,3.59,0,0,1-2,3.3.07.07,0,0,0,0,.09l1.6,3.13a1,1,0,0,1-.9,1.48Zm-4.2-5a1,1,0,0,1,.91.57l1.72,3.48a.07.07,0,0,0,.06,0h1.51a.07.07,0,0,0,.06,0,.07.07,0,0,0,0-.07l-1.6-3.13a1,1,0,0,1,.42-1.36,2.64,2.64,0,0,0,1.46-2.46,2.89,2.89,0,0,0-3.15-3H14.7a.07.07,0,0,0-.07.07v9.83a.07.07,0,0,0,.07.07h1.4a.07.07,0,0,0,.07-.07v-3A1,1,0,0,1,17.19,34.25Zm.94-1.16h-.94a1,1,0,0,1-1-1V30.51a1,1,0,0,1,1-1h.94a1.81,1.81,0,1,1,0,3.59Zm-.94-2.64a.07.07,0,0,0-.07.07v1.56a.07.07,0,0,0,.07.07h.94c.41,0,1.1-.11,1.1-.85,0-.56-.37-.85-1.1-.85Z"/><path class="cls-10" d="M24.67,38V28.68a.79.79,0,0,1,.79-.79h.94a.79.79,0,0,1,.79.79V38a.79.79,0,0,1-.79.79h-.94A.79.79,0,0,1,24.67,38Z"/><path class="cls-10" d="M26.4,39.29h-.94A1.26,1.26,0,0,1,24.2,38V28.68a1.26,1.26,0,0,1,1.26-1.26h.94a1.26,1.26,0,0,1,1.26,1.26V38A1.26,1.26,0,0,1,26.4,39.29Zm-.94-10.92a.31.31,0,0,0-.31.31V38a.31.31,0,0,0,.31.31h.94a.31.31,0,0,0,.31-.31V28.68a.31.31,0,0,0-.31-.31Z"/><path class="cls-10" d="M42.12,38V28.68a.79.79,0,0,1,.79-.79h.94a.79.79,0,0,1,.79.79V38a.79.79,0,0,1-.79.79H42.9A.79.79,0,0,1,42.12,38Z"/><path class="cls-10" d="M43.85,39.29H42.9A1.26,1.26,0,0,1,41.64,38V28.68a1.26,1.26,0,0,1,1.26-1.26h.94a1.26,1.26,0,0,1,1.26,1.26V38A1.26,1.26,0,0,1,43.85,39.29ZM42.9,28.37a.31.31,0,0,0-.31.31V38a.31.31,0,0,0,.31.31h.94a.31.31,0,0,0,.31-.31V28.68a.31.31,0,0,0-.31-.31Z"/><path class="cls-10" d="M30.24,38.7V28.28a.38.38,0,0,1,.38-.38h3.49a5.72,5.72,0,0,1,5.75,6.29c-.34,2.88-2.5,4.63-5.59,4.63H30.36A.12.12,0,0,1,30.24,38.7Z"/><path class="cls-10" d="M34.27,39.29H30.36a.59.59,0,0,1-.59-.59V28.28a.86.86,0,0,1,.85-.85h3.49a6.32,6.32,0,0,1,4.72,2.12,6,6,0,0,1,1.5,4.7C40,37.35,37.63,39.29,34.27,39.29Zm-3.56-.94h3.56c2.89,0,4.81-1.57,5.12-4.21a5,5,0,0,0-1.27-4,5.37,5.37,0,0,0-4-1.8h-3.4Z"/><path class="cls-11" d="M53.2,39.29a5.81,5.81,0,0,1-6-6,6,6,0,1,1,6,6Z"/><path class="cls-10" d="M18.07,32.41h0a1.3,1.3,0,0,0,1.23-1.73h0a1.3,1.3,0,0,0-2.45,0h0A1.3,1.3,0,0,0,18.07,32.41Z"/><path class="cls-10" d="M18.07,32.88a1.77,1.77,0,0,1-1.67-2.38,1.76,1.76,0,0,1,1.66-1.16h0a1.76,1.76,0,0,1,1.66,1.19,1.77,1.77,0,0,1-1.67,2.36Zm0-2.6a.83.83,0,0,0-.68,1.31.83.83,0,1,0,.69-1.31Z"/></svg>