<?xml version="1.0" encoding="UTF-8"?>
<svg width="149px" height="40px" viewBox="0 0 149 40" version="1.1" xmlns="http://www.w3.org/2000/svg" xmlns:xlink="http://www.w3.org/1999/xlink">
    <!-- Generator: Sketch 53.2 (72643) - https://sketchapp.com -->
    <title>logo</title>
    <desc>Created with Sketch.</desc>
    <defs>
        <linearGradient x1="31.7107143%" y1="96.8228571%" x2="67.5835714%" y2="3.37214286%" id="linearGradient-1">
            <stop stop-color="#F9F1CD" offset="0%"></stop>
            <stop stop-color="#EACDAF" offset="1.575238%"></stop>
            <stop stop-color="#D49881" offset="4.2347%"></stop>
            <stop stop-color="#C16959" offset="6.924071%"></stop>
            <stop stop-color="#B14339" offset="9.58918%"></stop>
            <stop stop-color="#A52620" offset="12.22%"></stop>
            <stop stop-color="#9C110E" offset="14.82%"></stop>
            <stop stop-color="#970404" offset="17.36%"></stop>
            <stop stop-color="#950000" offset="19.79%"></stop>
            <stop stop-color="#970000" offset="39.12%"></stop>
            <stop stop-color="#990000" offset="42.31%"></stop>
            <stop stop-color="#CC0303" offset="73.06%"></stop>
            <stop stop-color="#F30505" offset="98.66%"></stop>
        </linearGradient>
        <linearGradient x1="0.235%" y1="49.8357143%" x2="100.307857%" y2="49.8357143%" id="linearGradient-2">
            <stop stop-color="#F9F1CD" offset="0%"></stop>
            <stop stop-color="#CDCAC5" offset="1.639397%"></stop>
            <stop stop-color="#9899BB" offset="3.914076%"></stop>
            <stop stop-color="#696FB3" offset="6.215411%"></stop>
            <stop stop-color="#434DAC" offset="8.495234%"></stop>
            <stop stop-color="#2632A7" offset="10.75%"></stop>
            <stop stop-color="#111FA3" offset="12.97%"></stop>
            <stop stop-color="#0414A1" offset="15.15%"></stop>
            <stop stop-color="#0010A0" offset="17.22%"></stop>
            <stop stop-color="#0B0DB3" offset="22.96%"></stop>
            <stop stop-color="#3202F4" offset="43.1%"></stop>
            <stop stop-color="#3207F0" offset="58.21%"></stop>
            <stop stop-color="#3214E5" offset="75.35%"></stop>
            <stop stop-color="#332BD3" offset="93.44%"></stop>
            <stop stop-color="#3333CC" offset="98.66%"></stop>
        </linearGradient>
        <linearGradient x1="0.264285714%" y1="50.17%" x2="100.336429%" y2="50.17%" id="linearGradient-3">
            <stop stop-color="#F9F1CD" offset="0%"></stop>
            <stop stop-color="#D8D1B4" offset="1.399696%"></stop>
            <stop stop-color="#ADA794" offset="3.495351%"></stop>
            <stop stop-color="#858176" offset="5.822016%"></stop>
            <stop stop-color="#64615D" offset="8.328471%"></stop>
            <stop stop-color="#474548" offset="11.07%"></stop>
            <stop stop-color="#302F36" offset="14.13%"></stop>
            <stop stop-color="#1F1E29" offset="17.63%"></stop>
            <stop stop-color="#121220" offset="21.87%"></stop>
            <stop stop-color="#0B0B1B" offset="27.58%"></stop>
            <stop stop-color="#090919" offset="41.13%"></stop>
            <stop stop-color="#090919" offset="48.12%"></stop>
            <stop stop-color="#090919" offset="90.58%"></stop>
            <stop stop-color="#090919" offset="91.72%"></stop>
            <stop stop-color="#090919" offset="98.66%"></stop>
        </linearGradient>
        <linearGradient x1="-0.352857143%" y1="49.7992857%" x2="99.72%" y2="49.7992857%" id="linearGradient-4">
            <stop stop-color="#F9F1CD" offset="0%"></stop>
            <stop stop-color="#D8D1B4" offset="1.399696%"></stop>
            <stop stop-color="#ADA794" offset="3.495351%"></stop>
            <stop stop-color="#858176" offset="5.822016%"></stop>
            <stop stop-color="#64615D" offset="8.328471%"></stop>
            <stop stop-color="#474548" offset="11.07%"></stop>
            <stop stop-color="#302F36" offset="14.13%"></stop>
            <stop stop-color="#1F1E29" offset="17.63%"></stop>
            <stop stop-color="#121220" offset="21.87%"></stop>
            <stop stop-color="#0B0B1B" offset="27.58%"></stop>
            <stop stop-color="#090919" offset="41.13%"></stop>
            <stop stop-color="#090919" offset="48.12%"></stop>
            <stop stop-color="#090919" offset="90.58%"></stop>
            <stop stop-color="#090919" offset="91.72%"></stop>
            <stop stop-color="#090919" offset="98.66%"></stop>
        </linearGradient>
        <linearGradient x1="31.7471429%" y1="96.5614286%" x2="67.6192857%" y2="3.11%" id="linearGradient-5">
            <stop stop-color="#F9F1CD" offset="0%"></stop>
            <stop stop-color="#EACDAF" offset="1.575238%"></stop>
            <stop stop-color="#D49881" offset="4.2347%"></stop>
            <stop stop-color="#C16959" offset="6.924071%"></stop>
            <stop stop-color="#B14339" offset="9.58918%"></stop>
            <stop stop-color="#A52620" offset="12.22%"></stop>
            <stop stop-color="#9C110E" offset="14.82%"></stop>
            <stop stop-color="#970404" offset="17.36%"></stop>
            <stop stop-color="#950000" offset="19.79%"></stop>
            <stop stop-color="#970000" offset="39.12%"></stop>
            <stop stop-color="#990000" offset="42.31%"></stop>
            <stop stop-color="#CC0303" offset="73.06%"></stop>
            <stop stop-color="#F30505" offset="98.66%"></stop>
        </linearGradient>
        <linearGradient x1="-0.352857143%" y1="49.7535714%" x2="99.72%" y2="49.7535714%" id="linearGradient-6">
            <stop stop-color="#F9F1CD" offset="0%"></stop>
            <stop stop-color="#CDCAC5" offset="1.639397%"></stop>
            <stop stop-color="#9899BB" offset="3.914076%"></stop>
            <stop stop-color="#696FB3" offset="6.215411%"></stop>
            <stop stop-color="#434DAC" offset="8.495234%"></stop>
            <stop stop-color="#2632A7" offset="10.75%"></stop>
            <stop stop-color="#111FA3" offset="12.97%"></stop>
            <stop stop-color="#0414A1" offset="15.15%"></stop>
            <stop stop-color="#0010A0" offset="17.22%"></stop>
            <stop stop-color="#0B0DB3" offset="22.96%"></stop>
            <stop stop-color="#3202F4" offset="43.1%"></stop>
            <stop stop-color="#3207F0" offset="58.21%"></stop>
            <stop stop-color="#3214E5" offset="75.35%"></stop>
            <stop stop-color="#332BD3" offset="93.44%"></stop>
            <stop stop-color="#3333CC" offset="98.66%"></stop>
        </linearGradient>
        <linearGradient x1="0.160714286%" y1="50.0364286%" x2="100.233571%" y2="50.0364286%" id="linearGradient-7">
            <stop stop-color="#F9F1CD" offset="0%"></stop>
            <stop stop-color="#CDCAC5" offset="1.639397%"></stop>
            <stop stop-color="#9899BB" offset="3.914076%"></stop>
            <stop stop-color="#696FB3" offset="6.215411%"></stop>
            <stop stop-color="#434DAC" offset="8.495234%"></stop>
            <stop stop-color="#2632A7" offset="10.75%"></stop>
            <stop stop-color="#111FA3" offset="12.97%"></stop>
            <stop stop-color="#0414A1" offset="15.15%"></stop>
            <stop stop-color="#0010A0" offset="17.22%"></stop>
            <stop stop-color="#0B0DB3" offset="22.96%"></stop>
            <stop stop-color="#3202F4" offset="43.1%"></stop>
            <stop stop-color="#3207F0" offset="58.21%"></stop>
            <stop stop-color="#3214E5" offset="75.35%"></stop>
            <stop stop-color="#332BD3" offset="93.44%"></stop>
            <stop stop-color="#3333CC" offset="98.66%"></stop>
        </linearGradient>
        <linearGradient x1="-0.0185714286%" y1="49.8357143%" x2="100.053571%" y2="49.8357143%" id="linearGradient-8">
            <stop stop-color="#F9F1CD" offset="0%"></stop>
            <stop stop-color="#D8D1B4" offset="1.399696%"></stop>
            <stop stop-color="#ADA794" offset="3.495351%"></stop>
            <stop stop-color="#858176" offset="5.822016%"></stop>
            <stop stop-color="#64615D" offset="8.328471%"></stop>
            <stop stop-color="#474548" offset="11.07%"></stop>
            <stop stop-color="#302F36" offset="14.13%"></stop>
            <stop stop-color="#1F1E29" offset="17.63%"></stop>
            <stop stop-color="#121220" offset="21.87%"></stop>
            <stop stop-color="#0B0B1B" offset="27.58%"></stop>
            <stop stop-color="#090919" offset="41.13%"></stop>
            <stop stop-color="#090919" offset="48.12%"></stop>
            <stop stop-color="#090919" offset="90.58%"></stop>
            <stop stop-color="#090919" offset="91.72%"></stop>
            <stop stop-color="#090919" offset="98.66%"></stop>
        </linearGradient>
        <linearGradient x1="32.2%" y1="96.4507143%" x2="68.0721429%" y2="2.99928571%" id="linearGradient-9">
            <stop stop-color="#F9F1CD" offset="0%"></stop>
            <stop stop-color="#EACDAF" offset="1.575238%"></stop>
            <stop stop-color="#D49881" offset="4.2347%"></stop>
            <stop stop-color="#C16959" offset="6.924071%"></stop>
            <stop stop-color="#B14339" offset="9.58918%"></stop>
            <stop stop-color="#A52620" offset="12.22%"></stop>
            <stop stop-color="#9C110E" offset="14.82%"></stop>
            <stop stop-color="#970404" offset="17.36%"></stop>
            <stop stop-color="#950000" offset="19.79%"></stop>
            <stop stop-color="#970000" offset="39.12%"></stop>
            <stop stop-color="#990000" offset="42.31%"></stop>
            <stop stop-color="#CC0303" offset="73.06%"></stop>
            <stop stop-color="#F30505" offset="98.66%"></stop>
        </linearGradient>
        <linearGradient x1="32.1675%" y1="96.8516667%" x2="68.1491667%" y2="3.11833333%" id="linearGradient-10">
            <stop stop-color="#F9F1CD" offset="0%"></stop>
            <stop stop-color="#9C9C9C" offset="19.71%"></stop>
            <stop stop-color="#BEBEBE" offset="35%"></stop>
            <stop stop-color="#DADADA" offset="51.44%"></stop>
            <stop stop-color="#EFEFEF" offset="67.87%"></stop>
            <stop stop-color="#FBFBFB" offset="84.12%"></stop>
            <stop stop-color="#FFFFFF" offset="100%"></stop>
        </linearGradient>
    </defs>
    <g id="Page-1" stroke="none" stroke-width="1" fill="none" fill-rule="evenodd">
        <g id="logo" fill-rule="nonzero">
            <circle id="Oval" fill="url(#linearGradient-1)" cx="69.8" cy="8.7" r="7"></circle>
            <circle id="Oval" fill="url(#linearGradient-2)" cx="69.2" cy="15.4" r="7"></circle>
            <circle id="Oval" fill="url(#linearGradient-3)" cx="68" cy="22.7" r="7"></circle>
            <circle id="Oval" fill="url(#linearGradient-4)" cx="76.8" cy="8.4" r="7"></circle>
            <circle id="Oval" fill="url(#linearGradient-5)" cx="76.8" cy="15.4" r="7"></circle>
            <circle id="Oval" fill="url(#linearGradient-6)" cx="76.8" cy="23.1" r="7"></circle>
            <circle id="Oval" fill="url(#linearGradient-7)" cx="85.1" cy="7" r="7"></circle>
            <circle id="Oval" fill="url(#linearGradient-8)" cx="84.1" cy="15.4" r="7"></circle>
            <circle id="Oval" fill="url(#linearGradient-9)" cx="83.4" cy="24.3" r="7"></circle>
            <g id="Group" transform="translate(90.000000, 26.000000)" fill="#090919">
                <g>
                    <path d="M10.2,12.6 L10.2,12.6 C10.1,12.2 9.7,12 9.3,12.2 C8.7,12.6 7.9,12.9 6.9,12.9 C3.8,12.9 1.2,10.7 1.2,7.2 C1.2,3.8 3.9,1.5 7,1.5 C9.8,1.5 11.3,2.9 11.9,4.3 C12,4.6 11.9,5 11.6,5.1 L10.3,5.5 C10,5.6 9.7,5.5 9.6,5.2 C9.3,4.5 8.5,3.7 7,3.7 C5.5,3.7 3.7,4.7 3.7,7.1 C3.7,9.4 5.2,10.6 7.1,10.6 C8.2,10.6 8.9,10.2 9.3,9.8 C9.6,9.4 9.4,8.9 8.9,8.9 L7,8.9 C6.7,8.9 6.4,8.6 6.4,8.3 L6.4,7.4 C6.4,7.1 6.7,6.8 7,6.8 L11.6,6.8 C11.9,6.8 12.2,7.1 12.2,7.4 L12.2,12 C12.2,12.3 11.9,12.6 11.6,12.6 L10.2,12.6 L10.2,12.6 Z" id="Path"></path>
                    <path d="M6.9,13.3 C3.3,13.3 0.8,10.7 0.8,7.1 C0.8,3.6 3.5,0.9 7.1,0.9 C10.6,0.9 12,3 12.5,4 C12.6,4.3 12.6,4.6 12.5,4.8 C12.4,5.1 12.2,5.3 11.9,5.4 L10.6,5.8 C10.1,6 9.6,5.7 9.3,5.3 C9,5 8.5,4.2 7,4.2 C5.9,4.2 4.2,4.8 4.2,7.2 C4.2,9.4 5.7,10.2 7.1,10.2 C8.1,10.2 8.7,9.8 9,9.5 C9,9.5 9,9.5 9,9.4 C9,9.4 9,9.3 8.9,9.3 L7,9.3 C6.4,9.3 6,8.8 6,8.3 L6,7.4 C6,6.8 6.5,6.4 7,6.4 L11.6,6.4 C12.2,6.4 12.6,6.9 12.6,7.4 L12.6,12 C12.6,12.6 12.1,13 11.6,13 L9.7,13 L9.6,12.6 C9.6,12.6 9.6,12.5 9.6,12.5 C9.6,12.5 9.5,12.5 9.5,12.5 C9,12.9 8.2,13.3 6.9,13.3 Z M7,1.9 C4,1.9 1.7,4.1 1.7,7.1 C1.7,10.1 3.9,12.3 6.9,12.3 C8,12.3 8.7,12 9.1,11.7 C9.4,11.5 9.8,11.5 10.1,11.6 C10.3,11.7 10.5,11.8 10.6,12 L11.7,12 C11.8,12 11.8,12 11.8,11.9 L11.8,7.2 C11.8,7.1 11.8,7.1 11.7,7.1 L7,7.1 C6.9,7.1 6.9,7.1 6.9,7.2 L6.9,8.1 C6.9,8.2 6.9,8.2 7,8.2 L8.8,8.2 C9.2,8.2 9.6,8.4 9.8,8.8 C10,9.2 9.9,9.6 9.6,9.9 C9.2,10.4 8.4,10.9 7,10.9 C5.1,10.9 3.2,9.7 3.2,7 C3.2,4.3 5.2,3.1 7,3.1 C9,3.1 9.8,4.3 10,4.8 C10,4.8 10.1,4.8 10.1,4.8 L11.4,4.4 C11.4,4.4 11.4,4.4 11.5,4.3 C11.5,4.3 11.5,4.3 11.5,4.2 C11.1,3.5 9.9,1.9 7,1.9 Z" id="Shape"></path>
                </g>
                <g transform="translate(13.000000, 1.000000)">
                    <path d="M7.8,9.6 L4.3,9.6 C4.1,9.6 3.9,9.7 3.8,10 L3.3,11.5 C3.2,11.7 3,11.9 2.8,11.9 L1.4,11.9 C1,11.9 0.7,11.5 0.9,11.1 L4.6,1.6 C4.7,1.2 5.1,1 5.5,1 L7.1,1 C7.5,1 7.8,1.2 8,1.6 L11.6,11.1 C11.7,11.5 11.5,11.9 11.1,11.9 L9.6,11.9 C9.4,11.9 9.2,11.8 9.1,11.5 L8.6,10 C8.3,9.7 8.1,9.6 7.8,9.6 Z" id="Path"></path>
                    <path d="M10.9,12.3 L9.4,12.3 C9,12.3 8.6,12 8.4,11.6 L7.9,10.1 C7.9,10.1 7.9,10 7.8,10 L4.3,10 C4.3,10 4.2,10 4.2,10.1 L3.7,11.6 C3.6,12 3.2,12.3 2.7,12.3 L1.3,12.3 C1,12.3 0.6,12.1 0.4,11.8 C0.2,11.5 0.2,11.2 0.3,10.8 L4,1.3 C4.2,0.8 4.7,0.4 5.3,0.4 L6.9,0.4 C7.5,0.4 8,0.8 8.2,1.3 L11.8,10.8 C11.9,11.1 11.9,11.5 11.7,11.8 C11.6,12.1 11.3,12.3 10.9,12.3 Z M4.3,9.1 L7.8,9.1 C8.2,9.1 8.6,9.4 8.8,9.8 L9.3,11.3 C9.3,11.3 9.3,11.4 9.4,11.4 L10.9,11.4 C10.9,11.4 11,11.4 11,11.4 C11,11.4 11,11.4 11,11.3 L7.4,1.8 C7.3,1.6 7.1,1.5 7,1.5 L5.4,1.5 C5.2,1.5 5,1.6 5,1.8 L1.3,11.3 C1.3,11.3 1.3,11.4 1.3,11.4 C1.3,11.4 1.3,11.4 1.4,11.4 L2.8,11.4 C2.8,11.4 2.9,11.4 2.9,11.3 L3.4,9.8 C3.5,9.4 3.9,9.1 4.3,9.1 Z" id="Shape"></path>
                </g>
                <g transform="translate(25.000000, 1.000000)">
                    <path d="M11.6,10.9 L11.6,8.2 C11.6,7.4 10.5,7.2 10.2,7.9 L8.8,11.3 C8.7,11.6 8.4,11.7 8.1,11.7 L7,11.7 C6.7,11.7 6.5,11.5 6.4,11.3 L5,7.9 C4.7,7.2 3.7,7.4 3.7,8.2 L3.7,10.8 C3.7,11.3 3.3,11.7 2.8,11.7 L2.3,11.7 C1.8,11.7 1.4,11.3 1.4,10.8 L1.4,1.8 C1.4,1.3 1.8,0.9 2.3,0.9 L4,0.9 C4.4,0.9 4.7,1.1 4.9,1.5 L7.1,6.7 C7.3,7.3 8.2,7.3 8.4,6.7 L10.5,1.5 C10.6,1.1 11,0.9 11.4,0.9 L13.3,0.9 C13.8,0.9 14.2,1.3 14.2,1.8 L14.2,10.8 C14.2,11.3 13.8,11.7 13.3,11.7 L12.7,11.7 C12,11.8 11.6,11.4 11.6,10.9 Z" id="Path"></path>
                    <path d="M13.2,12.3 L12.6,12.3 C11.8,12.3 11.2,11.7 11.2,10.9 L11.2,8.2 C11.2,8 11.1,8 11,8 C10.9,8 10.8,8 10.7,8.1 L9.3,11.5 C9.1,11.9 8.7,12.2 8.2,12.2 L7.1,12.2 C6.6,12.2 6.2,11.9 6,11.5 L4.6,8.1 C4.5,7.9 4.4,7.9 4.3,8 C4.2,8 4.1,8.1 4.1,8.2 L4.1,10.8 C4.1,11.6 3.5,12.2 2.7,12.2 L2.2,12.2 C1.4,12.2 0.8,11.6 0.8,10.8 L0.8,1.8 C0.8,1 1.4,0.4 2.2,0.4 L3.9,0.4 C4.5,0.4 5,0.7 5.2,1.3 L7.4,6.5 C7.5,6.6 7.6,6.6 7.6,6.6 C7.6,6.6 7.8,6.6 7.8,6.5 L9.9,1.3 C10.1,0.8 10.6,0.4 11.2,0.4 L13.1,0.4 C13.9,0.4 14.5,1 14.5,1.8 L14.5,10.8 C14.6,11.7 14,12.3 13.2,12.3 Z M10.9,7 C11,7 11.1,7 11.1,7 C11.7,7.1 12.1,7.6 12.1,8.2 L12.1,10.9 C12.1,11.2 12.3,11.4 12.6,11.4 L13.2,11.4 C13.5,11.4 13.7,11.2 13.7,10.9 L13.7,1.9 C13.7,1.6 13.5,1.4 13.2,1.4 L11.3,1.4 C11.1,1.4 10.9,1.5 10.9,1.7 L8.8,6.9 C8.6,7.3 8.2,7.6 7.7,7.6 C7.7,7.6 7.7,7.6 7.7,7.6 C7.2,7.6 6.8,7.3 6.6,6.9 L4.4,1.7 C4.3,1.5 4.2,1.4 4,1.4 L2.3,1.4 C2,1.4 1.8,1.6 1.8,1.9 L1.8,10.9 C1.8,11.2 2,11.4 2.3,11.4 L2.8,11.4 C3.1,11.4 3.3,11.2 3.3,10.9 L3.3,8.3 C3.3,7.7 3.7,7.3 4.2,7.1 C4.8,7 5.3,7.3 5.5,7.8 L6.9,11.2 C6.9,11.3 7,11.3 7.1,11.3 L8.2,11.3 C8.3,11.3 8.4,11.2 8.4,11.2 L9.8,7.8 C10,7.3 10.4,7 10.9,7 Z" id="Shape"></path>
                </g>
                <g transform="translate(41.000000, 1.000000)">
                    <path d="M0.5,11.8 L0.5,1.9 C0.5,1.3 1,0.9 1.5,0.9 L6.5,0.9 C7.1,0.9 7.5,1.4 7.5,1.9 L7.5,2.1 C7.5,2.7 7,3.1 6.5,3.1 L4,3.1 C3.4,3.1 3,3.6 3,4.1 L3,4.1 C3,4.7 3.5,5.1 4,5.1 L6.1,5.1 C6.7,5.1 7.1,5.6 7.1,6.1 L7.1,6.2 C7.1,6.8 6.6,7.2 6.1,7.2 L4,7.2 C3.4,7.2 2.9,7.7 2.9,8.3 L2.9,8.3 C2.9,8.9 3.4,9.4 4,9.4 L6.5,9.4 C7.1,9.4 7.5,9.9 7.5,10.4 L7.5,10.6 C7.5,11.2 7,11.6 6.5,11.6 L0.5,11.8 L0.5,11.8 Z" id="Path"></path>
                    <path d="M6.5,12.3 L0,12.3 L0,1.9 C0,1.1 0.7,0.4 1.5,0.4 L6.5,0.4 C7.3,0.4 8,1.1 8,1.9 L8,2.1 C8,2.9 7.3,3.6 6.5,3.6 L4,3.6 C3.7,3.6 3.4,3.9 3.4,4.2 C3.4,4.5 3.7,4.8 4,4.8 L6.1,4.8 C6.9,4.8 7.6,5.5 7.6,6.3 L7.6,6.4 C7.6,7.2 6.9,7.9 6.1,7.9 L4,7.9 C3.7,7.9 3.4,8.2 3.4,8.5 C3.4,8.8 3.7,9.1 4,9.1 L6.5,9.1 C7.3,9.1 8,9.8 8,10.6 L8,10.8 C8.1,11.6 7.4,12.3 6.5,12.3 Z M1,11.3 L6.6,11.3 C6.9,11.3 7.2,11 7.2,10.7 L7.2,10.5 C7.2,10.2 6.9,9.9 6.6,9.9 L4,9.9 C3.2,9.9 2.5,9.2 2.5,8.4 C2.5,7.6 3.2,6.9 4,6.9 L6.1,6.9 C6.4,6.9 6.7,6.6 6.7,6.3 L6.7,6.2 C6.7,5.9 6.4,5.6 6.1,5.6 L4,5.6 C3.2,5.6 2.5,4.9 2.5,4.1 C2.5,3.3 3.2,2.6 4,2.6 L6.5,2.6 C6.8,2.6 7.1,2.3 7.1,2 L7.1,1.8 C7.1,1.5 6.8,1.2 6.5,1.2 L1.5,1.2 C1.2,1.2 0.9,1.5 0.9,1.8 L0.9,11.3 L1,11.3 Z" id="Shape"></path>
                </g>
                <g transform="translate(49.000000, 0.000000)">
                    <path d="M7.9,4.7 C7.5,4.8 7.1,4.6 6.9,4.3 C6.6,4 6.1,3.7 5.3,3.7 C4.4,3.7 3.8,4.3 3.8,4.9 C3.8,5.4 4.1,5.8 4.9,5.9 L6.4,6.2 C8.5,6.6 9.6,7.9 9.6,9.5 C9.6,11.2 8.2,13 5.5,13 C3.4,13 2.1,12.1 1.5,11 C1.1,10.3 1.5,9.5 2.3,9.4 L2.4,9.4 C2.8,9.4 3.2,9.6 3.4,10 C3.7,10.6 4.4,10.9 5.5,10.9 C6.5,10.9 7.1,10.4 7.1,9.8 C7.1,9.2 6.6,8.9 5.9,8.7 L4.4,8.4 C2.5,8.1 1.3,6.8 1.3,5.2 C1.3,3.1 3.2,1.7 5.3,1.7 C7.2,1.7 8.2,2.4 8.8,3.3 C9.2,3.9 8.9,4.8 8.1,4.9 L7.9,4.7 Z" id="Path"></path>
                    <path d="M5.4,13.3 C2.7,13.3 1.5,11.9 0.9,11.1 C0.6,10.6 0.6,10.1 0.8,9.6 C1,9.1 1.5,8.8 2,8.8 L2.1,8.8 C2.7,8.8 3.3,9.1 3.6,9.6 C3.7,9.8 3.9,10.2 5.3,10.2 C5.8,10.2 6.4,10 6.4,9.5 C6.4,9.1 5.9,8.9 5.6,8.9 L4.1,8.6 C2,8.2 0.7,6.8 0.7,4.9 C0.7,2.7 2.7,0.9 5.2,0.9 C7.4,0.9 8.6,1.9 9.1,2.7 C9.4,3.1 9.4,3.6 9.3,4.1 C9.1,4.6 8.7,4.9 8.2,5 L7.9,5.1 C7.3,5.2 6.8,5 6.4,4.5 C6.2,4.2 5.8,4 5.2,4 C4.5,4 4.1,4.4 4.1,4.7 C4.1,4.8 4.1,5.2 4.8,5.3 L6.3,5.6 C8.5,6 9.9,7.4 9.9,9.3 C10,11.3 8.4,13.3 5.4,13.3 Z M2.4,9.7 C2.4,9.7 2.4,9.7 2.4,9.7 L2.2,9.7 C2,9.7 1.8,9.8 1.7,10 C1.6,10.2 1.6,10.4 1.7,10.6 C2.1,11.3 3.1,12.4 5.3,12.4 C7.7,12.4 8.9,10.9 8.9,9.4 C8.9,8 7.8,6.9 6.1,6.6 L4.6,6.3 C3.3,6.1 3.1,5.2 3.1,4.8 C3.1,4 3.9,3.2 5.1,3.2 C6.2,3.2 6.8,3.7 7.1,4 C7.2,4.2 7.4,4.3 7.6,4.2 L7.9,4.1 C8.1,4.1 8.3,3.9 8.3,3.7 C8.4,3.5 8.4,3.3 8.2,3.2 C7.6,2.3 6.5,1.8 5.1,1.8 C3.1,1.8 1.6,3.1 1.6,4.9 C1.6,6.3 2.6,7.3 4.3,7.6 L5.8,7.9 C6.8,8.1 7.4,8.7 7.4,9.5 C7.4,10.5 6.6,11.1 5.4,11.1 C4.1,11.1 3.2,10.7 2.8,10 C2.8,9.9 2.6,9.7 2.4,9.7 Z" id="Shape"></path>
                </g>
            </g>
            <g id="Group" transform="translate(0.000000, 27.000000)">
                <g fill="#090919">
                    <path d="M9.4,11.6 L9.4,11.6 C9.3,11.2 8.9,11 8.5,11.2 C7.9,11.6 7.1,11.9 6.1,11.9 C3,11.9 0.4,9.7 0.4,6.2 C0.4,2.8 3.1,0.5 6.2,0.5 C8.5,0.5 10.1,2.2 10.8,3.1 C11,3.4 10.9,3.8 10.6,3.9 L9.7,4.3 C9.3,4.4 8.9,4.3 8.7,3.9 C8.3,3.3 7.6,2.6 6.2,2.6 C4.7,2.6 2.9,3.6 2.9,6 C2.9,8.3 4.4,9.5 6.3,9.5 C7.4,9.5 8.1,9.1 8.5,8.7 C8.8,8.3 8.6,7.8 8.1,7.8 L6.3,7.8 C6,7.8 5.7,7.5 5.7,7.2 L5.7,6.3 C5.7,6 6,5.7 6.3,5.7 L10.9,5.7 C11.2,5.7 11.5,6 11.5,6.3 L11.5,11 C11.5,11.3 11.2,11.6 10.9,11.6 L9.4,11.6 L9.4,11.6 Z" id="Path"></path>
                    <path d="M6.1,12.3 C2.5,12.3 0,9.7 0,6.1 C0,2.6 2.7,0 6.3,0 C8.9,0 10.6,2 11.3,2.8 C11.5,3 11.5,3.4 11.5,3.7 C11.4,4 11.2,4.2 11,4.4 L10,4.8 C9.4,5 8.7,4.8 8.4,4.2 C8.2,3.8 7.6,3.1 6.3,3.1 C5.2,3.1 3.5,3.7 3.5,6.1 C3.5,8.3 5,9.1 6.4,9.1 C7.4,9.1 8,8.7 8.3,8.4 C8.3,8.4 8.3,8.4 8.3,8.3 C8.3,8.3 8.3,8.2 8.2,8.2 L6.3,8.2 C5.7,8.2 5.3,7.7 5.3,7.2 L5.3,6.3 C5.3,5.7 5.8,5.3 6.3,5.3 L10.9,5.3 C11.5,5.3 11.9,5.8 11.9,6.3 L11.9,11 C11.9,11.6 11.4,12 10.9,12 L9,12 L9,11.6 C9,11.6 9,11.5 9,11.5 C9,11.5 8.9,11.5 8.9,11.5 C8.3,11.9 7.4,12.3 6.1,12.3 Z M6.3,0.9 C3.3,0.9 1,3.1 1,6.1 C1,9.1 3.2,11.3 6.2,11.3 C7.3,11.3 8,11 8.4,10.7 C8.7,10.5 9.1,10.5 9.4,10.6 C9.6,10.7 9.8,10.8 9.9,11 L11,11 C11.1,11 11.1,11 11.1,10.9 L11.1,6.2 C11.1,6.1 11.1,6.1 11,6.1 L6.3,6.1 C6.2,6.1 6.2,6.1 6.2,6.2 L6.2,7.1 C6.2,7.2 6.2,7.2 6.3,7.2 L8.1,7.2 C8.5,7.2 8.9,7.4 9.1,7.8 C9.3,8.2 9.2,8.6 8.9,8.9 C8.5,9.4 7.7,9.9 6.3,9.9 C4.4,9.9 2.5,8.7 2.5,6 C2.5,3.3 4.5,2.1 6.3,2.1 C8.1,2.1 8.9,3.1 9.2,3.6 C9.3,3.7 9.5,3.8 9.6,3.8 L10.4,3.4 C10.4,3.4 10.4,3.4 10.4,3.3 C10.4,3.3 10.4,3.3 10.4,3.2 C9.8,2.4 8.4,0.9 6.3,0.9 Z" id="Shape"></path>
                </g>
                <g transform="translate(13.000000, 0.000000)" fill="#090919" id="Shape">
                    <path d="M4.2,7.7 L4.2,7.7 C3.9,7.7 3.7,7.9 3.7,8.2 L3.7,11.2 C3.7,11.5 3.5,11.7 3.2,11.7 L1.8,11.7 C1.5,11.7 1.3,11.5 1.3,11.2 L1.3,1.4 C1.3,1.1 1.5,0.9 1.8,0.9 L5.7,0.9 C7.9,0.9 9.3,2.4 9.3,4.3 C9.3,5.6 8.6,6.6 7.6,7.2 C7.3,7.3 7.2,7.7 7.4,7.9 L9,11 C9.2,11.4 8.9,11.8 8.5,11.8 L7,11.8 C6.8,11.8 6.6,11.7 6.5,11.5 L4.7,8 C4.6,7.8 4.4,7.7 4.2,7.7 Z M5.1,5.6 C6.1,5.6 6.7,5 6.7,4.3 C6.7,3.5 6.1,3 5.1,3 L4.2,3 C3.9,3 3.7,3.2 3.7,3.5 L3.7,5.1 C3.7,5.4 3.9,5.6 4.2,5.6 L5.1,5.6 Z"></path>
                    <path d="M8.4,12.3 L6.9,12.3 C6.5,12.3 6.2,12.1 6,11.7 L4.3,8.2 C4.3,8.1 4.2,8.2 4.2,8.2 L4.2,11.2 C4.2,11.8 3.7,12.2 3.2,12.2 L1.8,12.2 C1.2,12.2 0.8,11.7 0.8,11.2 L0.8,1.4 C0.8,0.8 1.3,0.4 1.8,0.4 L5.7,0.4 C8.1,0.4 9.8,2 9.8,4.3 C9.8,5.7 9.1,6.9 7.8,7.6 C7.8,7.6 7.8,7.7 7.8,7.7 L9.4,10.8 C9.6,11.1 9.5,11.5 9.4,11.8 C9.1,12.1 8.7,12.3 8.4,12.3 Z M4.2,7.3 C4.6,7.3 4.9,7.5 5.1,7.9 L6.8,11.4 C6.8,11.4 6.8,11.4 6.9,11.4 L8.4,11.4 C8.4,11.4 8.4,11.4 8.5,11.4 C8.5,11.4 8.5,11.3 8.5,11.3 L6.9,8.2 C6.6,7.7 6.8,7.1 7.3,6.8 C8.2,6.3 8.8,5.4 8.8,4.3 C8.8,2.5 7.5,1.3 5.7,1.3 L1.8,1.3 C1.8,1.3 1.7,1.3 1.7,1.4 L1.7,11.2 C1.7,11.2 1.7,11.3 1.8,11.3 L3.2,11.3 C3.2,11.3 3.3,11.3 3.3,11.2 L3.3,8.2 C3.2,7.7 3.6,7.3 4.2,7.3 Z M5.1,6.1 L4.2,6.1 C3.6,6.1 3.2,5.6 3.2,5.1 L3.2,3.5 C3.2,2.9 3.7,2.5 4.2,2.5 L5.1,2.5 C6.3,2.5 7.1,3.2 7.1,4.3 C7.2,5.2 6.5,6.1 5.1,6.1 Z M4.2,3.4 C4.1,3.4 4.1,3.5 4.2,3.4 L4.1,5 C4.1,5 4.1,5.1 4.2,5.1 L5.1,5.1 C5.5,5.1 6.2,5 6.2,4.3 C6.2,3.7 5.8,3.5 5.1,3.5 L4.2,3.5 L4.2,3.4 Z"></path>
                </g>
                <g transform="translate(24.000000, 0.000000)" fill="#090919">
                    <path d="M0.7,11 L0.7,1.7 C0.7,1.3 1.1,0.9 1.5,0.9 L2.4,0.9 C2.8,0.9 3.2,1.3 3.2,1.7 L3.2,11 C3.2,11.4 2.8,11.8 2.4,11.8 L1.5,11.8 C1,11.8 0.7,11.5 0.7,11 Z" id="Path"></path>
                    <path d="M2.4,12.3 L1.5,12.3 C0.8,12.3 0.2,11.7 0.2,11 L0.2,1.7 C0.2,1 0.8,0.4 1.5,0.4 L2.4,0.4 C3.1,0.4 3.7,1 3.7,1.7 L3.7,11 C3.7,11.7 3.1,12.3 2.4,12.3 Z M1.5,1.4 C1.3,1.4 1.2,1.5 1.2,1.7 L1.2,11 C1.2,11.2 1.3,11.3 1.5,11.3 L2.4,11.3 C2.6,11.3 2.7,11.2 2.7,11 L2.7,1.7 C2.7,1.5 2.6,1.4 2.4,1.4 L1.5,1.4 Z" id="Shape"></path>
                </g>
                <g transform="translate(41.000000, 0.000000)" fill="#090919">
                    <path d="M1.1,11 L1.1,1.7 C1.1,1.3 1.5,0.9 1.9,0.9 L2.8,0.9 C3.2,0.9 3.6,1.3 3.6,1.7 L3.6,11 C3.6,11.4 3.2,11.8 2.8,11.8 L1.9,11.8 C1.5,11.8 1.1,11.5 1.1,11 Z" id="Path"></path>
                    <path d="M2.8,12.3 L1.9,12.3 C1.2,12.3 0.6,11.7 0.6,11 L0.6,1.7 C0.6,1 1.2,0.4 1.9,0.4 L2.8,0.4 C3.5,0.4 4.1,1 4.1,1.7 L4.1,11 C4.1,11.7 3.5,12.3 2.8,12.3 Z M1.9,1.4 C1.7,1.4 1.6,1.5 1.6,1.7 L1.6,11 C1.6,11.2 1.7,11.3 1.9,11.3 L2.8,11.3 C3,11.3 3.1,11.2 3.1,11 L3.1,1.7 C3.1,1.5 3,1.4 2.8,1.4 L1.9,1.4 Z" id="Shape"></path>
                </g>
                <g transform="translate(29.000000, 0.000000)" fill="#090919">
                    <path d="M1.2,11.7 L1.2,1.3 C1.2,1.1 1.4,0.9 1.6,0.9 L5.1,0.9 C8.5,0.9 11.2,3.8 10.8,7.2 C10.5,10.1 8.3,11.8 5.2,11.8 L1.3,11.8 C1.3,11.8 1.2,11.8 1.2,11.7 Z" id="Path"></path>
                    <path d="M5.3,12.3 L1.4,12.3 C1.1,12.3 0.8,12 0.8,11.7 L0.8,1.3 C0.8,0.8 1.2,0.4 1.7,0.4 L5.2,0.4 C7,0.4 8.7,1.2 9.9,2.5 C11.1,3.8 11.6,5.5 11.4,7.2 C11,10.4 8.6,12.3 5.3,12.3 Z M1.7,11.3 L5.3,11.3 C8.2,11.3 10.1,9.7 10.4,7.1 C10.6,5.7 10.1,4.2 9.1,3.1 C8.1,2 6.6,1.3 5.1,1.3 L1.7,1.3 L1.7,11.3 L1.7,11.3 Z" id="Shape"></path>
                </g>
                <path d="M53.2,12.3 C50,12.3 47.2,9.9 47.2,6.3 C47.2,2.7 50,0.3 53.2,0.3 C56.4,0.3 59.2,2.7 59.2,6.3 C59.2,9.9 56.5,12.3 53.2,12.3 Z" id="Path" fill="url(#linearGradient-10)"></path>
                <g transform="translate(16.000000, 2.000000)" fill="#090919">
                    <path d="M2.1,3.4 L2.1,3.4 C3,3.4 3.6,2.5 3.3,1.7 L3.3,1.7 C2.9,0.5 1.3,0.5 0.8,1.7 L0.8,1.7 C0.5,2.5 1.2,3.4 2.1,3.4 Z" id="Path"></path>
                    <path d="M2.1,3.9 C1.5,3.9 1,3.6 0.6,3.1 C0.3,2.6 0.2,2 0.4,1.5 C0.7,0.8 1.3,0.3 2.1,0.3 C2.1,0.3 2.1,0.3 2.1,0.3 C2.9,0.3 3.5,0.8 3.8,1.5 C4,2 3.9,2.6 3.6,3.1 C3.2,3.6 2.6,3.9 2.1,3.9 Z M2.1,1.3 C1.8,1.3 1.5,1.4 1.3,1.8 C1.2,2.1 1.2,2.3 1.4,2.6 C1.6,2.8 1.8,3 2.1,3 C2.4,3 2.6,2.9 2.8,2.7 C3,2.5 3,2.2 2.9,1.9 C2.7,1.4 2.4,1.3 2.1,1.3 C2.1,1.3 2.1,1.3 2.1,1.3 Z" id="Shape"></path>
                </g>
            </g>
        </g>
    </g>
</svg>